<svg width="216" height="73" viewBox="0 0 216 73" fill="none" xmlns="http://www.w3.org/2000/svg">
<line x1="2" y1="72.007" x2="2" y2="1.52588e-05" stroke="black" stroke-width="4"/>
<line x1="75.5" y1="72.0104" x2="75.5" y2="0.00343323" stroke="black" stroke-width="4"/>
<line x1="148.5" y1="72.0104" x2="148.5" y2="0.00343323" stroke="black" stroke-width="4"/>
<line x1="38.5" y1="72.007" x2="38.5" y2="1.52588e-05" stroke="black" stroke-width="4"/>
<line x1="112" y1="72.0104" x2="112" y2="0.00343323" stroke="black" stroke-width="4"/>
<line x1="185" y1="72.0104" x2="185" y2="0.00343323" stroke="black" stroke-width="4"/>
<line x1="17.5" y1="72.0104" x2="17.5" y2="0.00343323" stroke="black" stroke-width="4"/>
<line x1="91" y1="72.0138" x2="91" y2="0.0068512" stroke="black" stroke-width="4"/>
<line x1="164" y1="72.0138" x2="164" y2="0.0068512" stroke="black" stroke-width="4"/>
<line x1="54" y1="72.0104" x2="54" y2="0.00343323" stroke="black" stroke-width="4"/>
<line x1="127.5" y1="72.0138" x2="127.5" y2="0.0068512" stroke="black" stroke-width="4"/>
<line x1="200.5" y1="72.0138" x2="200.5" y2="0.0068512" stroke="black" stroke-width="4"/>
<line x1="10.5" y1="72.0104" x2="10.5" y2="0.00343323" stroke="black" stroke-width="2"/>
<line x1="84" y1="72.0138" x2="84" y2="0.0068512" stroke="black" stroke-width="2"/>
<line x1="157" y1="72.0138" x2="157" y2="0.0068512" stroke="black" stroke-width="2"/>
<line x1="47" y1="72.0104" x2="47" y2="0.00343323" stroke="black" stroke-width="2"/>
<line x1="120.5" y1="72.0138" x2="120.5" y2="0.0068512" stroke="black" stroke-width="2"/>
<line x1="193.5" y1="72.0138" x2="193.5" y2="0.0068512" stroke="black" stroke-width="2"/>
<line x1="31.5" y1="72.0104" x2="31.5" y2="0.00343323" stroke="black" stroke-width="2"/>
<line x1="105" y1="72.0138" x2="105" y2="0.0068512" stroke="black" stroke-width="2"/>
<line x1="178" y1="72.0138" x2="178" y2="0.0068512" stroke="black" stroke-width="2"/>
<line x1="68" y1="72.0104" x2="68" y2="0.00343323" stroke="black" stroke-width="2"/>
<line x1="141.5" y1="72.0138" x2="141.5" y2="0.0068512" stroke="black" stroke-width="2"/>
<line x1="214.5" y1="72.0138" x2="214.5" y2="0.0068512" stroke="black" stroke-width="2"/>
<line x1="24" y1="72.0138" x2="24" y2="0.0068512" stroke="black" stroke-width="6"/>
<line x1="97.5" y1="72.0172" x2="97.5" y2="0.0102692" stroke="black" stroke-width="6"/>
<line x1="170.5" y1="72.0172" x2="170.5" y2="0.0102692" stroke="black" stroke-width="6"/>
<line x1="60.5" y1="72.0138" x2="60.5" y2="0.0068512" stroke="black" stroke-width="6"/>
<line x1="134" y1="72.0172" x2="134" y2="0.0102692" stroke="black" stroke-width="6"/>
<line x1="207" y1="72.0172" x2="207" y2="0.0102692" stroke="black" stroke-width="6"/>
</svg>
