<svg width="15" height="15" viewBox="0 0 15 15" fill="none" xmlns="http://www.w3.org/2000/svg">
<path d="M7.5 15C11.6421 15 15 11.6421 15 7.5C15 3.35786 11.6421 0 7.5 0C3.35786 0 0 3.35786 0 7.5C0 11.6421 3.35786 15 7.5 15Z" fill="black"/>
<path d="M8.83574 5.14746L8.24591 5.74933L10.1237 7.57298H4.54443V8.4156H10.1237L8.24591 10.2393L8.83574 10.8411L11.7729 7.99429L8.83574 5.14746Z" fill="black"/>
<path d="M8.29131 5L7.70148 5.60187L9.5793 7.42552H4V8.26814H9.5793L7.70148 10.0918L8.29131 10.6937L11.2284 7.84683L8.29131 5Z" fill="white"/>
</svg>
