<svg width="335" height="329" viewBox="0 0 335 329" fill="none" xmlns="http://www.w3.org/2000/svg">
<rect width="335" height="329" rx="20.0597" fill="#D9D9D9"/>
<g clip-path="url(#clip0_1_9398)">
<path d="M40.5474 45.4795C40.5474 43.3751 41.3833 41.3569 42.8713 39.8689C44.3594 38.3809 46.3776 37.5449 48.4819 37.5449H96.0894C98.1937 37.5449 100.212 38.3809 101.7 39.8689C103.188 41.3569 104.024 43.3751 104.024 45.4795C104.024 47.5839 103.188 49.6021 101.7 51.0901C100.212 52.5781 98.1937 53.4141 96.0894 53.4141H69.1497C62.1174 53.4141 56.4165 59.1149 56.4165 66.1473V93.0869C56.4165 95.1913 55.5805 97.2095 54.0925 98.6975C52.6045 100.186 50.5863 101.021 48.4819 101.021C46.3776 101.021 44.3594 100.186 42.8713 98.6975C41.3833 97.2095 40.5474 95.1913 40.5474 93.0869V45.4795ZM230.977 45.4795C230.977 43.3751 231.813 41.3569 233.301 39.8689C234.789 38.3809 236.807 37.5449 238.912 37.5449H286.519C288.623 37.5449 290.642 38.3809 292.13 39.8689C293.618 41.3569 294.454 43.3751 294.454 45.4795V93.0869C294.454 95.1913 293.618 97.2095 292.13 98.6975C290.642 100.186 288.623 101.021 286.519 101.021C284.415 101.021 282.396 100.186 280.908 98.6975C279.42 97.2095 278.584 95.1913 278.584 93.0869V66.1473C278.584 59.1149 272.884 53.4141 265.851 53.4141H238.912C236.807 53.4141 234.789 52.5781 233.301 51.0901C231.813 49.6021 230.977 47.5839 230.977 45.4795ZM48.4819 227.975C50.5863 227.975 52.6045 228.811 54.0925 230.299C55.5805 231.787 56.4165 233.805 56.4165 235.909V262.849C56.4165 269.881 62.1174 275.582 69.1497 275.582H96.0894C98.1937 275.582 100.212 276.418 101.7 277.906C103.188 279.394 104.024 281.412 104.024 283.517C104.024 285.621 103.188 287.639 101.7 289.127C100.212 290.615 98.1937 291.451 96.0894 291.451H48.4819C46.3776 291.451 44.3594 290.615 42.8713 289.127C41.3833 287.639 40.5474 285.621 40.5474 283.517V235.909C40.5474 233.805 41.3833 231.787 42.8713 230.299C44.3594 228.811 46.3776 227.975 48.4819 227.975ZM286.519 227.975C288.623 227.975 290.642 228.811 292.13 230.299C293.618 231.787 294.454 233.805 294.454 235.909V283.517C294.454 285.621 293.618 287.639 292.13 289.127C290.642 290.615 288.623 291.451 286.519 291.451H238.912C236.807 291.451 234.789 290.615 233.301 289.127C231.813 287.639 230.977 285.621 230.977 283.517C230.977 281.412 231.813 279.394 233.301 277.906C234.789 276.418 236.807 275.582 238.912 275.582H265.851C272.884 275.582 278.584 269.881 278.584 262.849V235.909C278.584 233.805 279.42 231.787 280.908 230.299C282.396 228.811 284.415 227.975 286.519 227.975ZM104.024 108.956C104.024 104.574 107.576 101.021 111.958 101.021C116.341 101.021 119.893 104.574 119.893 108.956C119.893 113.338 116.341 116.891 111.958 116.891C107.576 116.891 104.024 113.338 104.024 108.956Z" fill="#FF7439"/>
<path d="M151.631 69.2832H72.2856V148.629H151.631V69.2832ZM88.1548 85.1523H135.762V132.76H88.1548V85.1523ZM119.893 212.105H104.024V227.975H119.893V212.105Z" fill="white"/>
<path d="M151.631 180.367H72.2856V259.713H151.631V180.367ZM88.1548 196.236H135.762V243.844H88.1548V196.236ZM215.108 101.021H230.977V116.891H215.108V101.021Z" fill="white"/>
<path d="M183.37 69.2832H262.715V148.629H183.37V69.2832ZM199.239 85.1523V132.76H246.846V85.1523H199.239ZM167.5 164.498V196.236H183.37V212.105H167.5V227.975H199.239V196.236H215.108V227.975H230.977V212.105H262.715V196.236H215.108V164.498H167.5ZM199.239 196.236H183.37V180.367H199.239V196.236ZM262.715 227.975H246.846V243.844H215.108V259.713H262.715V227.975ZM199.239 259.713V243.844H167.5V259.713H199.239Z" fill="white"/>
<path d="M230.977 180.367H262.715V164.498H230.977V180.367Z" fill="white"/>
<circle cx="111.782" cy="108.779" r="9.16884" fill="white"/>
<path d="M45.4844 164.499L291.632 162.383" stroke="#FF7439" stroke-width="4.2444" stroke-linecap="round" stroke-linejoin="round"/>
</g>
<defs>
<clipPath id="clip0_1_9398">
<rect width="253.906" height="253.906" fill="white" transform="translate(40.5474 37.5449)"/>
</clipPath>
</defs>
</svg>
