<svg width="49" height="50" viewBox="0 0 49 50" fill="none" xmlns="http://www.w3.org/2000/svg">
<path d="M47.3821 24.7857C47.3821 37.3042 37.2339 47.4524 24.7154 47.4524C12.1969 47.4524 2.04874 37.3042 2.04874 24.7857C2.04874 12.2673 12.1969 2.11905 24.7154 2.11905C37.2339 2.11905 47.3821 12.2673 47.3821 24.7857Z" fill="#FF7439" stroke="white" stroke-width="3.2381"/>
<path fill-rule="evenodd" clip-rule="evenodd" d="M14.5132 30.7588V35.3123H19.0667L32.4964 21.8825L27.9429 17.329L14.5132 30.7588ZM36.0183 18.3608C36.4919 17.8872 36.4919 17.1223 36.0183 16.6487L33.1769 13.8073C32.7034 13.3338 31.9384 13.3338 31.4648 13.8073L29.2427 16.0294L33.7962 20.5829L36.0183 18.3608H36.0183Z" fill="white"/>
</svg>
