<svg width="12" height="18" viewBox="0 0 12 18" fill="none" xmlns="http://www.w3.org/2000/svg">
<path d="M5.95677 0.769531C2.68215 0.769531 0.0336914 3.41799 0.0336914 6.69261C0.0336914 8.16492 0.456768 9.54415 1.22677 10.788C2.03061 12.0911 3.08831 13.208 3.90061 14.5111C4.29831 15.1457 4.586 15.738 4.89061 16.4234C5.11061 16.8888 5.28831 17.6926 5.95677 17.6926C6.62523 17.6926 6.80292 16.8888 7.01446 16.4234C7.32754 15.738 7.60677 15.1457 8.00446 14.5111C8.81677 13.2165 9.87446 12.0995 10.6783 10.788C11.4568 9.54415 11.8798 8.16492 11.8798 6.69261C11.8798 3.41799 9.23138 0.769531 5.95677 0.769531ZM5.95677 9.01953C4.78908 9.01953 3.84138 8.07184 3.84138 6.90415C3.84138 5.73645 4.78908 4.78876 5.95677 4.78876C7.12446 4.78876 8.07215 5.73645 8.07215 6.90415C8.07215 8.07184 7.12446 9.01953 5.95677 9.01953Z" fill="#FF7439"/>
</svg>
