<svg width="34" height="31" viewBox="0 0 34 31" fill="none" xmlns="http://www.w3.org/2000/svg">
<g clip-path="url(#clip0_1_5964)">
<path d="M21.3737 13.2502L21.7237 15.0002H13.6037L13.9537 13.2502H21.3737ZM22.3303 10.3335H12.997V11.5002H22.3303V10.3335ZM22.3303 12.0835H12.997L12.4137 15.0002V16.1668H12.997V19.6668H18.8303V16.1668H21.1637V19.6668H22.3303V16.1668H22.9137V15.0002L22.3303 12.0835ZM14.1637 18.5002V16.1668H17.6637V18.5002H14.1637Z" fill="#FF7439"/>
</g>
<path d="M23.2434 23.169L23.2777 23.1308L23.3079 23.0894L25.2219 20.4657C29.7998 14.1906 25.2836 5.3775 17.5162 5.42858C9.41002 5.4819 5.12024 15.0388 10.4679 21.1311L12.2485 23.1597L12.27 23.1841L12.293 23.2071L17.293 28.2071L18.0383 28.9524L18.7434 28.169L23.2434 23.169Z" stroke="#FF7439" stroke-width="2"/>
<defs>
<clipPath id="clip0_1_5964">
<rect width="14" height="14" fill="white" transform="translate(10.6637 8)"/>
</clipPath>
</defs>
</svg>
